<svg xmlns="http://www.w3.org/2000/svg" xmlns:xlink="http://www.w3.org/1999/xlink" width="478" zoomAndPan="magnify" viewBox="0 0 358.5 169.5" height="226" preserveAspectRatio="xMidYMid meet" version="1.0"><defs><g/><clipPath id="aff2a3b6c3"><path d="M 0.277344 0 L 357.722656 0 L 357.722656 169 L 0.277344 169 Z M 0.277344 0 " clip-rule="nonzero"/></clipPath></defs><g clip-path="url(#aff2a3b6c3)"><path fill="#ffffff" d="M 0.277344 0 L 357.722656 0 L 357.722656 169 L 0.277344 169 Z M 0.277344 0 " fill-opacity="1" fill-rule="nonzero"/></g><g fill="#2b2b2b" fill-opacity="1"><g transform="translate(109.75447, 112.731499)"><g><path d="M 56.960938 -9.492188 C 56.679688 -12.191406 56.027344 -14.890625 55.46875 -17.589844 C 54.820312 -20.660156 54.261719 -23.640625 53.703125 -26.710938 C 53.421875 -28.015625 53.144531 -29.410156 52.769531 -30.804688 C 52.585938 -32.386719 52.304688 -34.0625 52.027344 -35.644531 C 51.28125 -39.835938 50.539062 -44.023438 49.511719 -48.210938 C 48.582031 -52.027344 47 -55.75 44.117188 -58.632812 C 43 -59.84375 40.949219 -59.84375 39.648438 -58.820312 C 38.53125 -59.472656 37.136719 -59.65625 35.554688 -59.191406 C 34.527344 -59.007812 33.503906 -58.074219 33.320312 -57.144531 C 32.203125 -49.046875 30.15625 -41.042969 28.386719 -33.039062 C 27.175781 -27.828125 26.058594 -22.617188 24.851562 -17.402344 C 22.710938 -26.804688 20.660156 -37.695312 19.078125 -47.28125 C 18.707031 -49.605469 18.242188 -51.933594 18.054688 -54.167969 C 17.960938 -55.097656 17.589844 -56.027344 17.03125 -56.679688 C 16.378906 -58.355469 14.984375 -59.566406 13.214844 -59.9375 C 11.726562 -60.402344 10.050781 -60.214844 8.5625 -59.285156 C 7.445312 -58.632812 6.980469 -57.703125 6.980469 -56.773438 C 6.144531 -55.003906 6.234375 -52.957031 6.328125 -51.09375 C 6.328125 -48.863281 6.421875 -46.722656 6.421875 -44.488281 L 6.421875 -42.347656 C 6.234375 -42.347656 6.144531 -44.394531 5.957031 -44.394531 C 5.863281 -48.398438 5.769531 -52.679688 5.210938 -56.402344 C 5.117188 -56.867188 4.1875 -56.867188 4.09375 -56.402344 C 3.070312 -51.09375 3.445312 -45.511719 3.535156 -40.207031 C 3.535156 -34.714844 3.628906 -29.132812 3.816406 -23.640625 C 3.910156 -18.242188 4.28125 -13.03125 5.027344 -7.632812 C 5.304688 -5.398438 5.492188 -2.605469 7.167969 -0.929688 C 8.003906 -0.09375 9.308594 0.09375 10.425781 -0.277344 C 10.515625 -0.09375 10.609375 0 10.703125 0.09375 C 11.074219 0.558594 11.726562 0.558594 12.285156 0.277344 C 15.261719 -1.023438 14.984375 -4.46875 14.890625 -7.167969 C 14.707031 -14.984375 14.425781 -23.175781 14.054688 -30.992188 C 14.238281 -30.15625 14.519531 -29.410156 14.796875 -28.664062 C 15.542969 -25.59375 16.378906 -22.429688 17.21875 -19.359375 L 21.21875 -5.117188 C 21.59375 -3.628906 21.964844 -2.234375 22.800781 -0.929688 C 22.988281 -0.558594 23.359375 -0.464844 23.640625 -0.652344 C 24.011719 -0.371094 24.476562 -0.277344 24.941406 -0.277344 C 25.222656 -0.09375 25.6875 -0.09375 26.152344 -0.1875 C 27.640625 -0.558594 28.199219 -1.582031 28.664062 -2.886719 C 28.945312 -3.816406 29.132812 -4.652344 29.316406 -5.585938 C 29.316406 -5.398438 29.597656 -5.304688 29.691406 -5.675781 C 30.433594 -9.585938 31.738281 -15.355469 32.945312 -20.476562 C 34.25 -25.6875 36.578125 -33.785156 38.808594 -40.300781 C 39.648438 -36.390625 40.484375 -32.480469 41.417969 -28.574219 C 43.464844 -20.476562 44.488281 -13.03125 44.671875 -4.839844 C 44.671875 -2.605469 46.347656 -0.746094 48.488281 -0.277344 C 50.816406 2.046875 54.261719 0.558594 55.65625 -1.863281 C 56.960938 -4.1875 57.144531 -6.886719 56.960938 -9.492188 Z M 18.335938 -34.808594 C 18.335938 -34.996094 18.242188 -35.179688 18.148438 -35.273438 C 16.9375 -41.042969 15.636719 -46.628906 14.238281 -52.304688 C 14.332031 -52.492188 14.332031 -52.585938 14.332031 -52.679688 C 14.796875 -52.769531 15.261719 -52.957031 15.636719 -53.234375 C 16.007812 -51.746094 16.195312 -50.351562 16.378906 -48.953125 C 17.21875 -44.207031 18.429688 -37.414062 19.359375 -32.667969 C 18.800781 -33.226562 18.707031 -33.878906 18.335938 -34.808594 Z M 32.480469 -20.660156 L 32.386719 -20.660156 C 32.296875 -20.660156 32.203125 -20.660156 32.109375 -20.753906 C 32.386719 -22.152344 32.667969 -23.546875 32.855469 -24.941406 C 34.34375 -31.273438 36.019531 -37.507812 38.066406 -43.648438 C 38.253906 -43 38.34375 -42.347656 38.53125 -41.789062 C 36.203125 -34.808594 34.15625 -27.734375 32.480469 -20.660156 Z M 32.480469 -20.660156 "/></g></g></g><g fill="#2b2b2b" fill-opacity="1"><g transform="translate(157.123812, 112.731499)"><g><path d="M 2.140625 -49.140625 C 1.953125 -48.953125 1.953125 -48.675781 2.140625 -48.582031 C 4.1875 -49.511719 6.234375 -50.351562 8.375 -51.003906 C 14.519531 -53.144531 20.847656 -54.539062 27.175781 -55.933594 C 30.804688 -56.773438 34.527344 -57.703125 38.160156 -58.632812 C 37.320312 -58.632812 36.484375 -58.632812 35.644531 -58.542969 C 31.644531 -58.261719 27.828125 -57.515625 24.011719 -56.773438 L 21.871094 -56.214844 C 15.171875 -54.445312 8.285156 -52.398438 2.140625 -49.140625 Z M 54.351562 -11.261719 C 55.46875 -12.097656 56.214844 -13.402344 56.121094 -15.078125 C 55.75 -20.382812 53.980469 -28.574219 46.8125 -27.082031 C 45.789062 -26.804688 44.859375 -26.339844 43.835938 -26.058594 L 40.207031 -24.941406 C 37.972656 -24.199219 35.738281 -23.359375 33.503906 -22.523438 C 32.109375 -22.058594 30.714844 -21.5 29.316406 -20.941406 L 21.40625 -17.871094 C 19.359375 -17.03125 17.3125 -16.195312 15.261719 -15.261719 L 14.984375 -15.078125 C 14.984375 -15.261719 14.984375 -15.355469 14.984375 -15.449219 L 14.425781 -21.5 C 17.03125 -22.800781 19.542969 -24.105469 22.242188 -25.222656 C 26.617188 -27.082031 30.992188 -28.480469 35.460938 -29.691406 C 37.695312 -30.246094 40.019531 -30.714844 42.253906 -31.085938 C 44.394531 -31.550781 46.441406 -31.457031 48.398438 -32.386719 C 50.070312 -33.226562 51.1875 -35.273438 50.816406 -37.042969 C 50.628906 -37.972656 50.070312 -38.902344 49.234375 -39.367188 C 49.140625 -39.367188 49.140625 -39.367188 49.046875 -39.460938 C 48.953125 -39.835938 48.769531 -40.207031 48.582031 -40.578125 C 48.488281 -40.765625 48.398438 -41.042969 48.210938 -41.324219 C 46.90625 -43.558594 44.671875 -43.648438 42.347656 -43.558594 C 41.230469 -43.464844 40.207031 -43.371094 39.089844 -43.183594 L 37.878906 -42.90625 C 34.902344 -42.066406 31.832031 -41.230469 28.851562 -40.484375 C 23.546875 -38.53125 18.429688 -36.296875 13.214844 -34.0625 C 13.214844 -34.527344 12.65625 -37.878906 12.566406 -38.808594 L 12.75 -38.996094 C 15.636719 -40.207031 18.613281 -41.324219 21.59375 -42.347656 C 22.617188 -42.8125 31.832031 -45.605469 36.578125 -46.90625 C 36.761719 -46.90625 36.949219 -47 37.136719 -47.09375 C 39.277344 -47.652344 41.417969 -48.304688 43.464844 -48.953125 L 48.117188 -50.351562 C 48.488281 -52.210938 48.210938 -54.167969 47.558594 -56.121094 C 47.09375 -56.492188 46.535156 -56.960938 46.070312 -57.332031 L 44.582031 -57.890625 C 44.023438 -58.074219 43.371094 -58.167969 42.71875 -58.261719 C 37.878906 -56.960938 33.039062 -55.65625 28.105469 -54.539062 C 21.777344 -53.234375 15.449219 -51.839844 9.308594 -49.699219 C 7.351562 -49.046875 5.304688 -48.304688 3.351562 -47.464844 C 3.257812 -47.1875 3.070312 -46.90625 2.976562 -46.722656 C 1.675781 -45.605469 0.835938 -44.207031 0.652344 -42.347656 C 0.464844 -40.765625 1.023438 -38.996094 2.140625 -37.785156 L 3.257812 -27.175781 L 4.375 -16.007812 C 4.652344 -12.75 4.839844 -9.398438 5.398438 -6.234375 C 4.558594 -3.816406 6.144531 -1.023438 8.46875 -0.09375 C 8.375 0.371094 8.375 0.746094 8.5625 1.210938 C 9.308594 2.792969 10.980469 2.886719 12.472656 2.605469 C 12.84375 2.605469 13.402344 2.511719 13.402344 2.511719 C 13.308594 2.605469 18.613281 1.023438 19.730469 0.277344 L 19.824219 0.1875 C 20.847656 -0.277344 21.871094 -0.652344 22.894531 -1.117188 C 23.082031 -1.210938 23.359375 -1.304688 23.546875 -1.394531 L 23.640625 -1.394531 C 26.710938 -2.699219 29.875 -3.816406 33.039062 -4.933594 C 39.648438 -7.257812 46.535156 -9.027344 53.421875 -10.332031 C 53.980469 -10.425781 54.261719 -10.796875 54.351562 -11.261719 Z M 31.832031 -30.992188 L 31.921875 -30.714844 C 31.363281 -30.527344 30.898438 -30.339844 30.339844 -30.0625 C 25.6875 -28.199219 20.847656 -26.433594 16.289062 -24.105469 C 17.03125 -24.757812 17.589844 -25.6875 17.777344 -26.710938 C 19.542969 -27.175781 21.3125 -27.734375 23.175781 -28.292969 C 26.058594 -29.222656 28.945312 -30.0625 31.832031 -30.992188 Z M 11.261719 1.210938 C 13.121094 0.746094 14.890625 0 16.660156 -0.652344 C 18.429688 -1.210938 20.101562 -1.863281 21.777344 -2.511719 L 21.777344 -2.328125 C 20.382812 -1.582031 18.988281 -0.835938 17.496094 -0.09375 C 16.847656 0.277344 16.101562 0.652344 15.355469 1.023438 C 15.261719 1.117188 15.171875 1.117188 15.078125 1.117188 C 14.796875 1.210938 12.65625 1.394531 11.261719 1.210938 Z M 11.261719 1.210938 "/></g></g></g><g fill="#2b2b2b" fill-opacity="1"><g transform="translate(204.493154, 112.731499)"><g><path d="M 34.0625 -2.792969 C 36.203125 3.910156 43.089844 3.722656 42.066406 -4.652344 C 41.324219 -10.238281 39.742188 -17.777344 38.53125 -23.269531 C 43.648438 -26.523438 42.625 -34.902344 35.554688 -35.738281 C 34.902344 -41.324219 34.34375 -55.375 34.25 -54.445312 C 33.878906 -51.375 33.691406 -48.117188 33.597656 -44.953125 C 33.503906 -44.953125 33.503906 -44.953125 33.414062 -45.046875 C 33.039062 -48.675781 32.667969 -52.492188 32.386719 -56.214844 C 32.109375 -59.191406 30.15625 -61.054688 27.457031 -61.242188 C 26.710938 -62.730469 24.851562 -63.847656 23.269531 -63.753906 C 18.519531 -63.660156 16.660156 -57.890625 14.984375 -54.261719 C 12.566406 -48.488281 11.074219 -42.441406 9.773438 -36.296875 C -1.304688 -34.621094 -1.304688 -24.476562 4.652344 -22.988281 C 4.746094 -22.710938 4.652344 -22.335938 4.558594 -22.152344 C 5.304688 -22.152344 6.234375 -22.242188 7.074219 -22.335938 C 5.675781 -16.9375 4.746094 -11.539062 4.003906 -6.050781 C 2.792969 2.699219 14.332031 4.003906 15.078125 -4.46875 L 15.636719 -8.65625 C 15.636719 -8.65625 17.21875 -18.148438 18.429688 -22.710938 L 19.265625 -22.710938 C 17.496094 -17.21875 16.660156 -11.539062 16.195312 -5.957031 C 16.101562 -4.839844 17.683594 -4.839844 17.683594 -5.957031 C 18.148438 -11.632812 19.171875 -17.125 20.570312 -22.710938 L 27.828125 -22.800781 C 28.574219 -19.453125 32.296875 -3.445312 34.0625 -2.792969 Z M 20.289062 -34.808594 C 21.128906 -39.183594 22.242188 -42.90625 23.734375 -48.117188 C 24.664062 -43.835938 25.128906 -37.507812 25.5 -35.179688 C 24.199219 -35.085938 21.59375 -34.996094 20.289062 -34.808594 Z M 20.289062 -34.808594 "/></g></g></g><g fill="#2b2b2b" fill-opacity="1"><g transform="translate(132.193871, 133.788909)"><g><path d="M 5.679688 -0.714844 L 6.007812 -2.292969 L 1.585938 -3.289062 L 6.007812 -4.296875 L 5.660156 -5.871094 L 0.339844 -4.429688 L 0.339844 -2.15625 Z M 5.679688 -0.714844 "/></g></g></g><g fill="#2b2b2b" fill-opacity="1"><g transform="translate(138.403023, 133.788909)"><g><path d="M 0.484375 0 L 3.039062 0 L 3.039062 -2.429688 L 7.21875 -2.429688 L 7.21875 -3.878906 L 3.039062 -3.878906 L 3.039062 -5.136719 L 7.796875 -5.136719 L 7.796875 -6.925781 L 0.484375 -6.925781 Z M 0.484375 0 "/></g></g></g><g fill="#2b2b2b" fill-opacity="1"><g transform="translate(146.246683, 133.788909)"><g><path d="M 8.070312 0.195312 C 8.699219 0.195312 9.460938 -0.0273438 9.839844 -0.347656 L 9.433594 -1.375 C 9.316406 -1.238281 9.085938 -1.160156 8.921875 -1.160156 C 8.640625 -1.160156 8.464844 -1.277344 8.332031 -1.46875 L 7.855469 -2.1875 C 7.691406 -2.429688 7.480469 -2.632812 7.246094 -2.710938 L 7.246094 -2.71875 C 8.515625 -2.960938 9.257812 -3.6875 9.257812 -4.730469 C 9.257812 -6.125 8.183594 -6.925781 6.328125 -6.925781 L 0.484375 -6.925781 L 0.484375 0 L 3.039062 0 L 3.039062 -2.292969 L 4.46875 -2.292969 C 4.953125 -2.292969 5.371094 -2.089844 5.660156 -1.675781 L 6.066406 -1.007812 C 6.472656 -0.425781 7.003906 0.195312 8.070312 0.195312 Z M 3.039062 -3.714844 L 3.039062 -5.429688 L 5.554688 -5.429688 C 6.269531 -5.429688 6.695312 -5.109375 6.695312 -4.578125 C 6.695312 -4.035156 6.269531 -3.714844 5.542969 -3.714844 Z M 3.039062 -3.714844 "/></g></g></g><g fill="#2b2b2b" fill-opacity="1"><g transform="translate(155.947303, 133.788909)"><g><path d="M 5.398438 0.242188 C 8.457031 0.242188 10.488281 -1.238281 10.488281 -3.464844 C 10.488281 -5.699219 8.457031 -7.167969 5.398438 -7.167969 C 2.339844 -7.167969 0.308594 -5.699219 0.308594 -3.464844 C 0.308594 -1.238281 2.339844 0.242188 5.398438 0.242188 Z M 5.398438 -1.546875 C 3.878906 -1.546875 2.863281 -2.3125 2.863281 -3.464844 C 2.863281 -4.613281 3.878906 -5.378906 5.398438 -5.378906 C 6.917969 -5.378906 7.925781 -4.613281 7.925781 -3.464844 C 7.925781 -2.3125 6.917969 -1.546875 5.398438 -1.546875 Z M 5.398438 -1.546875 "/></g></g></g><g fill="#2b2b2b" fill-opacity="1"><g transform="translate(166.605415, 133.788909)"><g><path d="M 0.484375 0 L 2.894531 0 L 2.894531 -4.558594 L 2.902344 -4.558594 L 6.617188 0 L 9.683594 0 L 9.683594 -6.925781 L 7.277344 -6.925781 L 7.277344 -2.429688 L 7.265625 -2.429688 L 3.550781 -6.925781 L 0.484375 -6.925781 Z M 0.484375 0 "/></g></g></g><g fill="#2b2b2b" fill-opacity="1"><g transform="translate(176.634871, 133.788909)"><g><path d="M 0.484375 0 L 5.417969 0 C 8.117188 0 9.617188 -1.238281 9.617188 -3.464844 C 9.617188 -5.6875 8.117188 -6.925781 5.417969 -6.925781 L 0.484375 -6.925781 Z M 2.960938 -1.722656 L 2.960938 -5.214844 L 5.050781 -5.214844 C 6.386719 -5.214844 7.128906 -4.585938 7.128906 -3.464844 C 7.128906 -2.351562 6.386719 -1.722656 5.050781 -1.722656 Z M 2.960938 -1.722656 "/></g></g></g><g fill="#2b2b2b" fill-opacity="1"><g transform="translate(186.422536, 133.788909)"><g><path d="M 0.484375 0 L 7.90625 0 L 7.90625 -1.566406 L 2.960938 -1.566406 L 2.960938 -2.855469 L 7.421875 -2.855469 L 7.421875 -4.199219 L 2.960938 -4.199219 L 2.960938 -5.359375 L 7.808594 -5.359375 L 7.808594 -6.925781 L 0.484375 -6.925781 Z M 0.484375 0 "/></g></g></g><g fill="#2b2b2b" fill-opacity="1"><g transform="translate(194.382255, 133.788909)"><g><path d="M 0.484375 0 L 2.894531 0 L 2.894531 -4.558594 L 2.902344 -4.558594 L 6.617188 0 L 9.683594 0 L 9.683594 -6.925781 L 7.277344 -6.925781 L 7.277344 -2.429688 L 7.265625 -2.429688 L 3.550781 -6.925781 L 0.484375 -6.925781 Z M 0.484375 0 "/></g></g></g><g fill="#2b2b2b" fill-opacity="1"><g transform="translate(204.411711, 133.788909)"><g><path d="M 0.484375 0 L 5.417969 0 C 8.117188 0 9.617188 -1.238281 9.617188 -3.464844 C 9.617188 -5.6875 8.117188 -6.925781 5.417969 -6.925781 L 0.484375 -6.925781 Z M 2.960938 -1.722656 L 2.960938 -5.214844 L 5.050781 -5.214844 C 6.386719 -5.214844 7.128906 -4.585938 7.128906 -3.464844 C 7.128906 -2.351562 6.386719 -1.722656 5.050781 -1.722656 Z M 2.960938 -1.722656 "/></g></g></g><g fill="#2b2b2b" fill-opacity="1"><g transform="translate(214.199376, 133.788909)"><g><path d="M 0.433594 2.320312 L 5.292969 -6.851562 L 4.953125 -7.023438 L 0.0976562 2.136719 Z M 0.433594 2.320312 "/></g></g></g><g fill="#2b2b2b" fill-opacity="1"><g transform="translate(219.451028, 133.788909)"><g><path d="M 0.667969 -5.871094 L 0.339844 -4.285156 L 4.761719 -3.289062 L 0.339844 -2.292969 L 0.6875 -0.714844 L 6.007812 -2.148438 L 6.007812 -4.429688 Z M 0.667969 -5.871094 "/></g></g></g></svg>